<svg xmlns="http://www.w3.org/2000/svg" width="3135" height="2768" viewBox="0 0 3135 2768" version="1.1"><path d="M 931.731 277.053 C 904.642 279.473, 875.350 286.226, 849.180 296.083 C 835.026 301.415, 808.938 314.281, 796.500 322.063 C 713.792 373.811, 659.625 461.282, 651.013 557 C 650.191 566.144, 649.975 739.450, 650.211 1202.500 L 650.533 1835.500 652.763 1848.500 C 658.703 1883.134, 666.780 1909.147, 680.397 1937.500 C 710.581 2000.349, 763.388 2052.777, 826.526 2082.579 C 857.562 2097.229, 888.853 2106.159, 925.006 2110.685 C 938.868 2112.421, 966.909 2112.500, 1568.500 2112.500 C 2169.709 2112.500, 2198.141 2112.420, 2212 2110.688 C 2296.294 2100.156, 2367.795 2060.642, 2419.529 1996 C 2453.494 1953.561, 2475.103 1903.548, 2484.332 1846.013 L 2486.500 1832.500 2486.500 1194.500 C 2486.500 584.670, 2486.420 555.970, 2484.696 544.500 C 2473.927 472.879, 2443.841 413.260, 2393.828 364.436 C 2367.029 338.274, 2338.259 318.482, 2305.482 303.659 C 2277.809 291.145, 2252.409 283.847, 2217 278.239 C 2207.297 276.702, 2158.433 276.564, 1573.500 276.423 C 1225.350 276.338, 936.554 276.622, 931.731 277.053 M 935.500 287.094 C 866.471 292.775, 801.328 322.147, 751.667 369.980 C 742.380 378.924, 740.873 380, 737.632 380 C 734.061 380, 734 380.067, 734 384.003 C 734 387.476, 733.075 389.137, 727.017 396.548 C 688.980 443.081, 665.802 500.531, 660.986 560.211 C 660.234 569.537, 660.013 761.058, 660.244 1202.500 C 660.549 1784.203, 660.700 1832.290, 662.244 1842 C 670.087 1891.319, 683.785 1927.946, 709.186 1967.520 C 714.214 1975.353, 725.537 1990.506, 730.657 1996.253 C 733.264 1999.180, 734 2000.885, 734 2004.003 C 734 2007.842, 734.128 2008.001, 737.250 2008.018 C 739.970 2008.034, 742.049 2009.518, 750 2017.122 C 798.902 2063.888, 856.272 2091.515, 922.500 2100.190 C 937.309 2102.130, 2198.691 2102.130, 2213.500 2100.190 C 2252.273 2095.111, 2293.478 2081.554, 2324.808 2063.567 C 2348.981 2049.688, 2367.044 2036.108, 2386.164 2017.437 C 2395.175 2008.638, 2396.104 2008, 2399.914 2008 L 2404 2008 2404 2003.548 C 2404 1999.469, 2404.693 1998.231, 2412.255 1988.798 C 2427.401 1969.904, 2440.524 1948.466, 2450.357 1926.551 C 2462.432 1899.639, 2469.209 1876.460, 2474.200 1845 L 2476.500 1830.500 2476.500 1194.500 L 2476.500 558.500 2474.313 544.900 C 2465.125 487.776, 2444.719 440.399, 2411.284 398.567 C 2404.594 390.198, 2404.035 389.134, 2404.018 384.750 L 2404 380 2399.716 380 C 2395.828 380, 2394.926 379.481, 2389.966 374.385 C 2382.342 366.552, 2365.400 352.027, 2354.592 344.057 C 2319.121 317.899, 2277.480 299.769, 2233.590 291.375 C 2206.645 286.222, 2255.504 286.589, 1574.500 286.423 C 1228.550 286.339, 941 286.641, 935.500 287.094 M 900.667 744.667 C 900.300 745.033, 900 957.679, 900 1217.214 L 900 1689.094 1053.750 1688.720 C 1218.890 1688.318, 1217.993 1688.344, 1253.636 1682.966 C 1320.467 1672.883, 1369.115 1649.815, 1410.205 1608.725 C 1444.806 1574.125, 1470.810 1528.889, 1482.481 1483 C 1494.628 1435.236, 1493.699 1379.528, 1479.971 1332.400 C 1460.321 1264.945, 1412.505 1212.392, 1335.723 1173.861 C 1330.236 1171.107, 1326.140 1168.517, 1326.623 1168.105 C 1327.105 1167.693, 1332.450 1163.340, 1338.500 1158.432 C 1387.479 1118.695, 1414.629 1071.314, 1420.978 1014.500 C 1422.296 1002.707, 1422.278 973.480, 1420.945 961.211 C 1411.800 876.993, 1357.377 807.419, 1274.149 773.544 C 1227.022 754.363, 1179.011 747.207, 1082.500 744.979 C 1036.242 743.911, 901.654 743.680, 900.667 744.667 M 1870 1016.500 L 1870 1137 1749.500 1137 L 1629 1137 1629 1217 L 1629 1297 1749.500 1297 L 1870 1297 1870 1417 L 1870 1537 1950.500 1537 L 2031 1537 2031 1417 L 2031 1297 2151 1297 L 2271 1297 2271 1217 L 2271 1137 2151 1137 L 2031 1137 2031 1016.500 L 2031 896 1950.500 896 L 1870 896 1870 1016.500 M 1080 1015.398 L 1080 1115 1105.894 1115 C 1120.136 1115, 1136.448 1114.542, 1142.144 1113.981 C 1200.337 1108.257, 1232.831 1085.013, 1245.230 1040.242 C 1247.090 1033.524, 1247.375 1029.855, 1247.384 1012.500 C 1247.393 993.581, 1247.247 992.025, 1244.687 983.703 C 1234.918 951.941, 1212.371 930.937, 1178.500 922.047 C 1160.681 917.370, 1154.057 916.755, 1116.250 916.265 L 1080 915.795 1080 1015.398 M 1080.246 1396.642 L 1080.500 1517.500 1119 1517.298 C 1179.350 1516.983, 1210.256 1513.945, 1239.593 1505.446 C 1259.881 1499.568, 1273.255 1492.441, 1285.277 1481.100 C 1305.053 1462.445, 1314.076 1439.223, 1314.069 1407 C 1314.062 1371.068, 1303.549 1344.166, 1280.633 1321.444 C 1256.434 1297.449, 1225.813 1285.093, 1174 1278.416 C 1165.121 1277.272, 1149.694 1276.658, 1120.746 1276.295 L 1079.992 1275.783 1080.246 1396.642" stroke="none" fill="#05080a" fill-rule="evenodd"/><path d="M 935.500 287.094 C 866.471 292.775, 801.328 322.147, 751.667 369.980 C 742.380 378.924, 740.873 380, 737.632 380 C 734.061 380, 734 380.067, 734 384.003 C 734 387.476, 733.075 389.137, 727.017 396.548 C 688.980 443.081, 665.802 500.531, 660.986 560.211 C 660.234 569.537, 660.013 761.058, 660.244 1202.500 C 660.549 1784.203, 660.700 1832.290, 662.244 1842 C 670.087 1891.319, 683.785 1927.946, 709.186 1967.520 C 714.214 1975.353, 725.537 1990.506, 730.657 1996.253 C 733.264 1999.180, 734 2000.885, 734 2004.003 C 734 2007.842, 734.128 2008.001, 737.250 2008.018 C 739.970 2008.034, 742.049 2009.518, 750 2017.122 C 798.902 2063.888, 856.272 2091.515, 922.500 2100.190 C 937.309 2102.130, 2198.691 2102.130, 2213.500 2100.190 C 2252.273 2095.111, 2293.478 2081.554, 2324.808 2063.567 C 2348.981 2049.688, 2367.044 2036.108, 2386.164 2017.437 C 2395.175 2008.638, 2396.104 2008, 2399.914 2008 L 2404 2008 2404 2003.548 C 2404 1999.469, 2404.693 1998.231, 2412.255 1988.798 C 2427.401 1969.904, 2440.524 1948.466, 2450.357 1926.551 C 2462.432 1899.639, 2469.209 1876.460, 2474.200 1845 L 2476.500 1830.500 2476.500 1194.500 L 2476.500 558.500 2474.313 544.900 C 2465.125 487.776, 2444.719 440.399, 2411.284 398.567 C 2404.594 390.198, 2404.035 389.134, 2404.018 384.750 L 2404 380 2399.716 380 C 2395.828 380, 2394.926 379.481, 2389.966 374.385 C 2382.342 366.552, 2365.400 352.027, 2354.592 344.057 C 2319.121 317.899, 2277.480 299.769, 2233.590 291.375 C 2206.645 286.222, 2255.504 286.589, 1574.500 286.423 C 1228.550 286.339, 941 286.641, 935.500 287.094 M 900.667 744.667 C 900.300 745.033, 900 957.679, 900 1217.214 L 900 1689.094 1053.750 1688.720 C 1218.890 1688.318, 1217.993 1688.344, 1253.636 1682.966 C 1320.467 1672.883, 1369.115 1649.815, 1410.205 1608.725 C 1444.806 1574.125, 1470.810 1528.889, 1482.481 1483 C 1494.628 1435.236, 1493.699 1379.528, 1479.971 1332.400 C 1460.321 1264.945, 1412.505 1212.392, 1335.723 1173.861 C 1330.236 1171.107, 1326.140 1168.517, 1326.623 1168.105 C 1327.105 1167.693, 1332.450 1163.340, 1338.500 1158.432 C 1387.479 1118.695, 1414.629 1071.314, 1420.978 1014.500 C 1422.296 1002.707, 1422.278 973.480, 1420.945 961.211 C 1411.800 876.993, 1357.377 807.419, 1274.149 773.544 C 1227.022 754.363, 1179.011 747.207, 1082.500 744.979 C 1036.242 743.911, 901.654 743.680, 900.667 744.667 M 1870 1016.500 L 1870 1137 1749.500 1137 L 1629 1137 1629 1217 L 1629 1297 1749.500 1297 L 1870 1297 1870 1417 L 1870 1537 1950.500 1537 L 2031 1537 2031 1417 L 2031 1297 2151 1297 L 2271 1297 2271 1217 L 2271 1137 2151 1137 L 2031 1137 2031 1016.500 L 2031 896 1950.500 896 L 1870 896 1870 1016.500 M 1080 1015.398 L 1080 1115 1105.894 1115 C 1120.136 1115, 1136.448 1114.542, 1142.144 1113.981 C 1200.337 1108.257, 1232.831 1085.013, 1245.230 1040.242 C 1247.090 1033.524, 1247.375 1029.855, 1247.384 1012.500 C 1247.393 993.581, 1247.247 992.025, 1244.687 983.703 C 1234.918 951.941, 1212.371 930.937, 1178.500 922.047 C 1160.681 917.370, 1154.057 916.755, 1116.250 916.265 L 1080 915.795 1080 1015.398 M 1080.246 1396.642 L 1080.500 1517.500 1119 1517.298 C 1179.350 1516.983, 1210.256 1513.945, 1239.593 1505.446 C 1259.881 1499.568, 1273.255 1492.441, 1285.277 1481.100 C 1305.053 1462.445, 1314.076 1439.223, 1314.069 1407 C 1314.062 1371.068, 1303.549 1344.166, 1280.633 1321.444 C 1256.434 1297.449, 1225.813 1285.093, 1174 1278.416 C 1165.121 1277.272, 1149.694 1276.658, 1120.746 1276.295 L 1079.992 1275.783 1080.246 1396.642" stroke="none" fill="#fbfbfb" fill-rule="evenodd"/></svg>